<svg xmlns="http://www.w3.org/2000/svg" version="1.1" xmlns:xlink="http://www.w3.org/1999/xlink" xmlns:svgjs="http://svgjs.dev/svgjs" width="1500" height="935" viewBox="0 0 1500 935"><g transform="matrix(1,0,0,1,-0.9090909090909918,0.3785425101214628)"><svg viewBox="0 0 396 247" data-background-color="#ffffff" preserveAspectRatio="xMidYMid meet" height="935" width="1500" xmlns="http://www.w3.org/2000/svg" xmlns:xlink="http://www.w3.org/1999/xlink"><g id="tight-bounds" transform="matrix(1,0,0,1,0.2400000000000091,-0.09999999999999432)"><svg viewBox="0 0 395.52 247.2" height="247.2" width="395.52"><g><svg></svg></g><g><svg viewBox="0 0 395.52 247.2" height="247.2" width="395.52"><mask id="6a392086-437f-4827-a185-b80314d4a95e"><rect width="395.52" height="247.2" fill="white"></rect><g transform="matrix(1,0,0,1,137.31912031047864,37.08)" id="clone"><svg viewBox="0 0 120.88175937904269 173.04" height="173.04" width="120.88175937904269"><g><svg viewBox="0 0 120.88175937904269 173.04" height="173.04" width="120.88175937904269"><g><svg viewBox="0 0 120.88175937904269 173.04" height="173.04" width="120.88175937904269"><g><svg viewBox="0 0 120.88175937904269 173.04" height="173.04" width="120.88175937904269"><g id="SvgjsG2467"><svg viewBox="0 0 120.88175937904269 173.04" height="173.04" width="120.88175937904269" id="SvgjsSvg2466"><g><svg viewBox="0 0 120.88175937904269 173.04" height="173.04" width="120.88175937904269"><g transform="matrix(1,0,0,1,0,0)"><svg width="120.88175937904269" viewBox="-2.25 -36.7 28 39.650000000000006" height="173.04" data-palette-color="#f7f1fc"><path d="M11.5-7.35L9.55-0.05 0.75-2.45 2.3-8.25 2.3-25 6.45-25 1.25-26.4 3.25-33.7 22.75-28.35 21.1-22.35 21.1-7.8 22.75-7.35 20.8-0.05 12-2.45 13.55-8.25 13.55-16.3 12.55-12.6 9.85-13.35 9.85-7.8 11.5-7.35ZM9.85-24.05L9.85-18.95 13.55-17.95 13.55-23.05 9.85-24.05Z" opacity="1" transform="matrix(1,0,0,1,0,0)" fill="black" class="wordmark-text-0" id="SvgjsPath2465" stroke-width="5" stroke="black" stroke-linejoin="round"></path></svg></g></svg></g></svg></g></svg></g></svg></g></svg></g></svg></g></mask><g mask="url(#6a392086-437f-4827-a185-b80314d4a95e)"><g><path d="M196.391 175.746l-10.675 39.965-48.177-13.14 8.486-31.752v-91.7h22.719l-28.468-7.665 10.95-39.965 106.755 29.29-9.033 32.847v79.656l9.033 2.464-10.676 39.965-48.176-13.14 8.485-31.752v-44.071l-5.474 20.256-14.782-4.106v30.384zM187.358 84.32v27.92l20.256 5.475v-27.921z" fill="#bb84e8" fill-rule="nonzero" stroke="none" stroke-width="1" stroke-linecap="butt" stroke-linejoin="miter" stroke-miterlimit="10" stroke-dasharray="" stroke-dashoffset="0" font-family="none" font-weight="none" font-size="none" text-anchor="none" style="mix-blend-mode: normal" data-fill-palette-color="tertiary"></path></g></g><g transform="matrix(1,0,0,1,137.31912031047864,37.08)"><svg viewBox="0 0 120.88175937904269 173.04" height="173.04" width="120.88175937904269"><g><svg viewBox="0 0 120.88175937904269 173.04" height="173.04" width="120.88175937904269"><g><svg viewBox="0 0 120.88175937904269 173.04" height="173.04" width="120.88175937904269"><g><svg viewBox="0 0 120.88175937904269 173.04" height="173.04" width="120.88175937904269"><g id="textblocktransform"><svg viewBox="0 0 120.88175937904269 173.04" height="173.04" width="120.88175937904269" id="textblock"><g><svg viewBox="0 0 120.88175937904269 173.04" height="173.04" width="120.88175937904269"><g transform="matrix(1,0,0,1,0,0)"><svg width="120.88175937904269" viewBox="-2.25 -36.7 28 39.650000000000006" height="173.04" data-palette-color="#f7f1fc"><path d="M11.5-7.35L9.55-0.05 0.75-2.45 2.3-8.25 2.3-25 6.45-25 1.25-26.4 3.25-33.7 22.75-28.35 21.1-22.35 21.1-7.8 22.75-7.35 20.8-0.05 12-2.45 13.55-8.25 13.55-16.3 12.55-12.6 9.85-13.35 9.85-7.8 11.5-7.35ZM9.85-24.05L9.85-18.95 13.55-17.95 13.55-23.05 9.85-24.05Z" opacity="1" transform="matrix(1,0,0,1,0,0)" fill="#f7f1fc" class="wordmark-text-0" data-fill-palette-color="primary" id="text-0"></path></svg></g></svg></g></svg></g></svg></g></svg></g></svg></g></svg></g></svg></g><defs></defs></svg><rect width="395.52" height="247.2" fill="none" stroke="none" visibility="hidden"></rect></g></svg></g></svg>